# xmcd
# Track frame offsets:
# 150
# 14382
# 31465
# 42470
# 58707
# 72172
# 86342
# 99852
# 114565
# 130285
# 142145
# 161955
#
# Disc length: 2369 seconds
# Revision: 0
# Processed by: cddbd v1.4PL0 Copyright (c) Steve Scherf et al.
# Submitted via: VisiTrax 2.9.5.180 - For more info visit www.synapsa.com
#
DISCID=a7093f0c
DTITLE=Lee Sims and the Platte River Band - Back Trackin'
DYEAR=2000
DGENRE=
TTITLE0=Folsom prison blues
TTITLE1=I take it on home
TTITLE2=Mama tried
TTITLE3=Fishin' (worm)
TTITLE4=Honey don't
TTITLE5=Statue of a fool
TTITLE6=Lady in the blue mercedes
TTITLE7=Don't rock the boat
TTITLE8=Lillies white lies
TTITLE9=Brandy
TTITLE10=How bout you
TTITLE11=Other woman in my life
EXTD=
EXTT0=
EXTT1=
EXTT2=
EXTT3=
EXTT4=
EXTT5=
EXTT6=
EXTT7=
EXTT8=
EXTT9=
EXTT10=
EXTT11=
PLAYORDER=
